HIERARCHY
ROOT Hips
{
	OFFSET 0.000000 0.000000 0.000000
	CHANNELS 6 Xposition Yposition Zposition Zrotation Yrotation Xrotation 
	JOINT LHipJoint
	{
		OFFSET 0.000000 0.000000 0.000000
		CHANNELS 3 Zrotation Yrotation Xrotation
		JOINT LeftUpLeg
		{
			OFFSET 1.363060 -1.794630 0.839290
			CHANNELS 3 Zrotation Yrotation Xrotation
			JOINT LeftLeg
			{
				OFFSET 2.448110 -6.726130 0.000000
				CHANNELS 3 Zrotation Yrotation Xrotation
				JOINT LeftFoot
				{
					OFFSET 2.562200 -7.039590 0.000000
					CHANNELS 3 Zrotation Yrotation Xrotation
					JOINT LeftToeBase
					{
						OFFSET 0.157640 -0.433110 2.322550
						CHANNELS 3 Zrotation Yrotation Xrotation
						End Site
						{
							OFFSET 0.000000 0.000000 0.000000
						}
					}
				}
			}
		}
	}
	JOINT RHipJoint
	{
		OFFSET 0.000000 0.000000 0.000000
		CHANNELS 3 Zrotation Yrotation Xrotation
		JOINT RightUpLeg
		{
			OFFSET -1.305520 -1.794630 0.839290
			CHANNELS 3 Zrotation Yrotation Xrotation
			JOINT RightLeg
			{
				OFFSET -2.542530 -6.985550 0.000000
				CHANNELS 3 Zrotation Yrotation Xrotation
				JOINT RightFoot
				{
					OFFSET -2.568260 -7.056230 0.000000
					CHANNELS 3 Zrotation Yrotation Xrotation
					JOINT RightToeBase
					{
						OFFSET -0.164730 -0.452590 2.363150
						CHANNELS 3 Zrotation Yrotation Xrotation
						End Site
						{
							OFFSET 0.000000 0.000000 0.000000
						}
					}
				}
			}
		}
	}
}
MOTION
Frames: 20
Frame Time: 0.008333
3.460977 17.610881 1.194004 30.537985 84.109272 50.425601 -9.851600 0.046482 -0.155527 -13.807842 2.517746 -38.438882 -1.885140 0.766482 24.881428 2.826584 15.828274 -3.030812 1.946600 0.000000 -33.425200 8.973311 -0.990800 -0.200142 7.464013 -1.517045 -13.169496 2.529891 0.941640 3.546732 -0.510134 -2.318901 -1.566850 -0.690700 0.000000 -44.161500
3.665442 17.591668 1.215982 27.287848 83.789853 47.179042 -9.698572 -0.056343 0.042640 -13.643593 2.190784 -38.634348 -2.050412 0.451602 21.328120 2.721334 15.232335 -2.537975 2.063800 0.000000 -33.592600 9.031769 -1.006965 -0.304511 7.431457 -1.483208 -11.947784 2.531136 0.980756 2.961592 -0.469610 -2.092139 -1.636037 -0.646600 -0.000000 -44.833100
3.870726 17.564119 1.235425 23.755741 83.469147 43.657105 -9.573822 -0.178463 0.243820 -13.348589 1.942064 -38.852645 -2.208407 0.127971 17.803173 2.581782 14.486527 -2.047729 2.140900 0.000001 -33.895900 9.063161 -1.029181 -0.401051 7.481209 -1.380713 -10.762706 2.538137 1.016643 2.486849 -0.442882 -1.917700 -1.807385 -0.605099 0.000000 -45.476400
4.076989 17.528768 1.252262 19.983150 83.136528 39.894610 -9.476149 -0.318199 0.435955 -12.955144 1.820100 -39.114756 -2.360765 -0.196211 14.356450 2.402286 13.559298 -1.551405 2.170500 -0.000000 -34.386900 9.069510 -1.056857 -0.488063 7.610315 -1.217598 -9.598741 2.551003 1.052227 2.099872 -0.429764 -1.797175 -2.079118 -0.566400 -0.000001 -46.057600
4.284286 17.486266 1.266501 16.030256 82.782806 35.941917 -9.403003 -0.472217 0.601922 -12.517144 1.891382 -39.452420 -2.512779 -0.509336 11.057346 2.176562 12.409292 -1.035939 2.144100 0.000000 -35.121200 9.053747 -1.089708 -0.563720 7.814048 -1.005884 -8.439465 2.570101 1.090022 1.778344 -0.428941 -1.724443 -2.447062 -0.529400 -0.000000 -46.549500
4.492693 17.437355 1.278399 12.072717 82.402877 31.964009 -9.348450 -0.635333 0.729407 -12.105493 2.194170 -39.884371 -2.670550 -0.802479 7.960991 1.904412 11.023358 -0.483505 2.058600 -0.000000 -36.125600 9.022999 -1.127134 -0.629410 8.071084 -0.779255 -7.274828 2.595345 1.130354 1.508091 -0.436143 -1.673693 -2.903150 -0.490300 -0.000000 -46.959600
4.702210 17.382805 1.288293 8.273835 81.998514 28.113838 -9.305522 -0.801776 0.805661 -11.802838 2.763180 -40.441741 -2.843247 -1.065798 5.142629 1.587730 9.385241 0.105311 1.905800 0.000000 -37.393400 8.983944 -1.168790 -0.687669 8.358229 -0.574528 -6.098170 2.626872 1.172823 1.279084 -0.445865 -1.612378 -3.434566 -0.445300 0.000000 -47.318699
4.912833 17.323431 1.296618 4.811259 81.580284 24.563607 -9.265760 -0.965490 0.828410 -11.679865 3.581709 -41.144149 -3.036235 -1.294402 2.655643 1.237664 7.523137 0.719494 1.684900 -0.000000 -38.900700 8.944101 -1.213637 -0.744422 8.642753 -0.437342 -4.912077 2.664395 1.215482 1.089974 -0.450976 -1.499043 -4.023705 -0.391600 -0.000000 -47.685201
5.124509 17.260077 1.304001 1.854494 81.165754 21.486019 -9.221153 -1.121646 0.814604 -11.749707 4.539786 -41.968796 -3.240568 -1.492481 0.488206 0.881598 5.567747 1.349902 1.416100 -0.000000 -40.599100 8.911423 -1.258667 -0.811215 8.884130 -0.417036 -3.729731 2.706883 1.254685 0.948383 -0.443433 -1.287955 -4.648755 -0.328001 0.000000 -48.139400
5.337187 17.193299 1.310700 -0.621085 80.777284 18.860462 -9.165620 -1.263803 0.769881 -12.034203 5.595721 -42.952995 -3.457778 -1.654893 -1.278669 0.532542 3.555527 1.920266 1.098600 0.000000 -42.362000 8.888448 -1.304432 -0.891498 9.068973 -0.534450 -2.562667 2.754381 1.288610 0.859356 -0.418486 -0.957201 -5.282916 -0.258500 0.000001 -48.753100
5.550924 17.123783 1.317226 -2.603743 80.435230 16.712861 -9.097056 -1.389280 0.725693 -12.451856 6.583068 -44.032408 -3.665080 -1.791652 -2.706489 0.223047 1.689088 2.400948 0.777000 -0.000000 -44.097900 8.879494 -1.348349 -0.996068 9.174197 -0.809396 -1.429078 2.805388 1.313087 0.835998 -0.372084 -0.487271 -5.899249 -0.187900 0.000000 -49.593100
5.765835 17.051948 1.323817 -4.199704 80.153992 14.946618 -9.016710 -1.495881 0.697189 -12.935400 7.424208 -45.180329 -3.852147 -1.904332 -3.790376 -0.033801 0.065851 2.730168 0.478400 0.000000 -45.692500 8.884645 -1.391124 -1.127450 9.200832 -1.233401 -0.338086 2.859078 1.325444 0.887086 -0.304160 0.116753 -6.471123 -0.122999 0.000000 -50.691899
5.982138 16.978347 1.330742 -5.482771 79.939080 13.498653 -8.931273 -1.586336 0.708025 -13.352917 8.001062 -46.296787 -3.995798 -2.002584 -4.619480 -0.218938 -1.143956 2.895202 0.249000 0.000001 -47.062600 8.904202 -1.431617 -1.290954 9.147141 -1.790850 0.704847 2.913698 1.322133 1.023102 -0.216287 0.842527 -6.975919 -0.069400 0.000000 -52.059101
6.200163 16.903283 1.337991 -6.603705 79.787309 12.215937 -8.843721 -1.660235 0.746560 -13.692229 8.372454 -47.398997 -4.106802 -2.077752 -5.121345 -0.346928 -2.022142 2.835669 0.082200 0.000000 -48.138901 8.934374 -1.474158 -1.477649 9.034339 -2.440831 1.706951 2.968116 1.302132 1.247021 -0.113876 1.654147 -7.395868 -0.031000 -0.000000 -53.651300
6.420385 16.827306 1.345629 -7.619733 79.687338 11.044706 -8.761685 -1.723075 0.821738 -13.852471 8.495846 -48.398602 -4.171193 -2.135684 -5.378578 -0.412225 -2.503662 2.580280 -0.003400 0.000000 -48.895000 8.973624 -1.518606 -1.686022 8.867567 -3.148251 2.672813 3.019888 1.263274 1.563775 -0.001837 2.521061 -7.720013 -0.008200 0.000000 -55.417000
6.643403 16.750892 1.353454 -8.620230 79.622234 9.894785 -8.688499 -1.777575 0.922991 -13.818748 8.427146 -49.291126 -4.195362 -2.171083 -5.376466 -0.427593 -2.677226 2.144319 -0.026000 0.000000 -49.331700 9.017815 -1.567657 -1.904453 8.666043 -3.858919 3.611195 3.066644 1.205797 1.969534 0.112452 3.395636 -7.944783 0.000899 0.000000 -57.264401
6.869817 16.674562 1.361228 -9.649495 79.574139 8.722132 -8.627837 -1.826754 1.044829 -13.568740 8.196226 -50.055087 -4.180268 -2.181632 -5.136474 -0.401369 -2.601717 1.581709 -0.001900 0.000000 -49.481400 9.064237 -1.622517 -2.124696 8.441124 -4.533258 4.526921 3.106317 1.130001 2.460111 0.223726 4.242098 -8.070463 0.000400 -0.000000 -59.129700
7.100411 16.598975 1.368658 -10.728031 79.523509 7.515152 -8.584392 -1.873956 1.189263 -13.064485 7.804049 -50.659952 -4.120290 -2.168599 -4.716281 -0.336290 -2.290091 0.982007 0.059400 0.000001 -49.409300 9.109522 -1.683114 -2.336424 8.206369 -5.121185 5.418665 3.136423 1.037540 3.024666 0.326013 5.017296 -8.103375 -0.004800 -0.000000 -60.936100
7.335802 16.524815 1.375474 -11.840151 79.454361 6.300352 -8.562024 -1.920539 1.359924 -12.280582 7.242190 -51.087013 -4.009411 -2.133335 -4.170381 -0.233643 -1.741706 0.442798 0.151901 0.000000 -49.191000 9.150920 -1.748281 -2.530703 7.971586 -5.581945 6.279327 3.154958 0.930486 3.651636 0.415133 5.687467 -8.052479 -0.009701 0.000000 -62.632200
7.576627 16.452743 1.381403 -12.968145 79.355597 5.106064 -8.561509 -1.963263 1.552839 -11.254617 6.541071 -51.377585 -3.854325 -2.071269 -3.489981 -0.103955 -1.017304 0.044482 0.264800 0.000000 -48.916601 9.185240 -1.818791 -2.694424 7.751089 -5.877580 7.097708 3.160662 0.811929 4.325707 0.487829 6.222145 -7.925391 -0.010300 0.000000 -64.204599
